<svg xmlns="http://www.w3.org/2000/svg" width="20.01" height="20.01" viewBox="0 0 20.01 20.01">
  <path id="Search" d="M18.652,17.066l-5.2-5.2a7.364,7.364,0,0,0,1.425-4.386A7.507,7.507,0,0,0,7.411,0,7.378,7.378,0,0,0,0,7.421,7.508,7.508,0,0,0,7.465,14.9a7.34,7.34,0,0,0,4.4-1.441l.005,0,5.2,5.2a1.122,1.122,0,1,0,1.585-1.587ZM7.459,13.407a6.006,6.006,0,0,1-5.972-5.98A5.9,5.9,0,0,1,7.416,1.49a6.006,6.006,0,0,1,5.972,5.98,5.9,5.9,0,0,1-5.928,5.937Z" transform="translate(0.5 0.5)" fill="#fefefc" stroke="#fefefc" stroke-width="1" fill-rule="evenodd"/>
</svg>
