<svg xmlns="http://www.w3.org/2000/svg" width="17.546" height="21.464" viewBox="0 0 17.546 21.464">
  <g id="user" transform="translate(4.477 0.75)">
    <path id="Path_1" data-name="Path 1" d="M91.1,9.965a4.983,4.983,0,1,0-4.983-4.983A4.983,4.983,0,0,0,91.1,9.965Zm0-9.121a4.138,4.138,0,1,1-4.138,4.138A4.138,4.138,0,0,1,91.1.844Zm0,0" transform="translate(-86.807 0)" fill="#fefefc" stroke="#fefefc" stroke-width="1.5"/>
    <path id="Path_2" data-name="Path 2" d="M4.3,331.313a7.865,7.865,0,0,0-5.675,2.369,8.44,8.44,0,0,0-2.348,5.962.424.424,0,0,0,.422.422H11.9a.423.423,0,0,0,.422-.422,8.43,8.43,0,0,0-2.348-5.958A7.869,7.869,0,0,0,4.3,331.313Zm-7.17,7.909a7.542,7.542,0,0,1,2.094-4.945,7.035,7.035,0,0,1,5.071-2.115,7.035,7.035,0,0,1,5.071,2.115,7.521,7.521,0,0,1,2.095,4.945Zm0,0" transform="translate(0 -320.102)" fill="#fefefc" stroke="#fefefc" stroke-width="1.5"/>
  </g>
</svg>
